<?xml version="1.0" encoding="UTF-8"?>
<svg version="1.1" xmlns="http://www.w3.org/2000/svg" width="360" height="360">
<path d="M0 0 C4.29 0 8.58 0 13 0 C12.67 1.32 12.34 2.64 12 4 C12.66 3.67 13.32 3.34 14 3 C14 2.01 14 1.02 14 0 C29.84 0 45.68 0 62 0 C62 0.33 62 0.66 62 1 C46.82 1 31.64 1 16 1 C16 1.66 16 2.32 16 3 C31.18 3 46.36 3 62 3 C62 5.31 62 7.62 62 10 C62.66 10 63.32 10 64 10 C64 8.02 64 6.04 64 4 C65.65 4 67.3 4 69 4 C69 5.98 69 7.96 69 10 C69.66 10 70.32 10 71 10 C71 7.69 71 5.38 71 3 C76.94 3 82.88 3 89 3 C89 2.34 89 1.68 89 1 C83.06 1 77.12 1 71 1 C71 0.67 71 0.34 71 0 C77.93 0 84.86 0 92 0 C91.67 1.32 91.34 2.64 91 4 C91.66 4 92.32 4 93 4 C93 2.68 93 1.36 93 0 C99.93 0 106.86 0 114 0 C114 1.32 114 2.64 114 4 C114.66 4 115.32 4 116 4 C115.505 2.02 115.505 2.02 115 0 C115.99 0 116.98 0 118 0 C118 3.3 118 6.6 118 10 C118.66 10 119.32 10 120 10 C120 8.02 120 6.04 120 4 C120.33 4 120.66 4 121 4 C121 5.98 121 7.96 121 10 C121.66 10 122.32 10 123 10 C123 6.7 123 3.4 123 0 C134.88 0 146.76 0 159 0 C159 1.32 159 2.64 159 4 C159.66 4 160.32 4 161 4 C161 2.68 161 1.36 161 0 C169.25 0 177.5 0 186 0 C186 1.32 186 2.64 186 4 C186.66 4 187.32 4 188 4 C187.67 2.68 187.34 1.36 187 0 C188.65 0 190.3 0 192 0 C191.34 0.33 190.68 0.66 190 1 C190 1.66 190 2.32 190 3 C190.66 3 191.32 3 192 3 C192.33 5.31 192.66 7.62 193 10 C193.33 10 193.66 10 194 10 C194.33 7.69 194.66 5.38 195 3 C197.31 3 199.62 3 202 3 C202 2.34 202 1.68 202 1 C199.69 1 197.38 1 195 1 C195 0.67 195 0.34 195 0 C197.97 0 200.94 0 204 0 C204 1.32 204 2.64 204 4 C204.66 4 205.32 4 206 4 C206 2.68 206 1.36 206 0 C229.1 0 252.2 0 276 0 C276 1.32 276 2.64 276 4 C276.66 4 277.32 4 278 4 C277.67 2.68 277.34 1.36 277 0 C297.46 0 317.92 0 339 0 C339 1.32 339 2.64 339 4 C339.66 4 340.32 4 341 4 C341 2.68 341 1.36 341 0 C347.27 0 353.54 0 360 0 C360 5.61 360 11.22 360 17 C359.34 17 358.68 17 358 17 C358 18.32 358 19.64 358 21 C358.66 21 359.32 21 360 21 C360 30.9 360 40.8 360 51 C359.34 51 358.68 51 358 51 C358 51.66 358 52.32 358 53 C358.66 53 359.32 53 360 53 C360 53.66 360 54.32 360 55 C359.34 55 358.68 55 358 55 C358 57.31 358 59.62 358 62 C358.66 62 359.32 62 360 62 C360 62.66 360 63.32 360 64 C359.34 64 358.68 64 358 64 C358 64.66 358 65.32 358 66 C358.66 66 359.32 66 360 66 C360 81.84 360 97.68 360 114 C359.34 114 358.68 114 358 114 C358 114.66 358 115.32 358 116 C358.66 116 359.32 116 360 116 C360 116.66 360 117.32 360 118 C359.34 118 358.68 118 358 118 C358 121.96 358 125.92 358 130 C358.66 130 359.32 130 360 130 C360 130.66 360 131.32 360 132 C359.34 132 358.68 132 358 132 C358 132.66 358 133.32 358 134 C358.66 134 359.32 134 360 134 C360 151.16 360 168.32 360 186 C359.34 186 358.68 186 358 186 C358 186.66 358 187.32 358 188 C358.66 188 359.32 188 360 188 C360 189.32 360 190.64 360 192 C359.34 192 358.68 192 358 192 C358 192.99 358 193.98 358 195 C358.66 195 359.32 195 360 195 C360 202.92 360 210.84 360 219 C359.34 219 358.68 219 358 219 C358 219.99 358 220.98 358 222 C358.66 222.33 359.32 222.66 360 223 C360 223.99 360 224.98 360 226 C359.34 226 358.68 226 358 226 C358 226.66 358 227.32 358 228 C358.66 228 359.32 228 360 228 C360 247.47 360 266.94 360 287 C359.34 287 358.68 287 358 287 C358 287.66 358 288.32 358 289 C358.66 289 359.32 289 360 289 C360 289.66 360 290.32 360 291 C359.34 291 358.68 291 358 291 C358 298.59 358 306.18 358 314 C358.66 314 359.32 314 360 314 C360 314.66 360 315.32 360 316 C359.34 316 358.68 316 358 316 C358 316.66 358 317.32 358 318 C358.66 318 359.32 318 360 318 C360 329.88 360 341.76 360 354 C358.02 354 356.04 354 354 354 C354 354.99 354 355.98 354 357 C355.98 357 357.96 357 360 357 C360 357.33 360 357.66 360 358 C358.02 358 356.04 358 354 358 C354 358.66 354 359.32 354 360 C353.34 360 352.68 360 352 360 C352 358.02 352 356.04 352 354 C351.34 354 350.68 354 350 354 C350 355.98 350 357.96 350 360 C343.4 360 336.8 360 330 360 C330 358.02 330 356.04 330 354 C329.01 354 328.02 354 327 354 C327.20625 354.61875 327.4125 355.2375 327.625 355.875 C327.74875 356.57625 327.8725 357.2775 328 358 C327.34 358.66 326.68 359.32 326 360 C325.67 359.67 325.34 359.34 325 359 C323.189715 358.90120435 321.37547273 358.87028486 319.5625 358.875 C318.07943359 358.87113281 318.07943359 358.87113281 316.56640625 358.8671875 C314.01090924 358.82771585 314.01090924 358.82771585 312 360 C311 357 311 357 312 354 C311.01 354 310.02 354 309 354 C309 355.98 309 357.96 309 360 C284.58 360 260.16 360 235 360 C235 358.02 235 356.04 235 354 C233.68 354 232.36 354 231 354 C231 355.98 231 357.96 231 360 C225.06 360 219.12 360 213 360 C213 358.02 213 356.04 213 354 C212.34 354 211.68 354 211 354 C211 355.98 211 357.96 211 360 C210.67 360 210.34 360 210 360 C210 358.02 210 356.04 210 354 C209.34 354 208.68 354 208 354 C208 355.98 208 357.96 208 360 C190.84 360 173.68 360 156 360 C156 356.7 156 353.4 156 350 C155.34 350 154.68 350 154 350 C154 353.3 154 356.6 154 360 C153.34 360 152.68 360 152 360 C152 358.02 152 356.04 152 354 C151.01 354 150.02 354 149 354 C149.33 352.68 149.66 351.36 150 350 C149.01 350 148.02 350 147 350 C147 351.32 147 352.64 147 354 C136.77 354 126.54 354 116 354 C116 352.68 116 351.36 116 350 C115.34 350 114.68 350 114 350 C114 351.32 114 352.64 114 354 C112.35 354 110.7 354 109 354 C109 352.68 109 351.36 109 350 C108.34 350 107.68 350 107 350 C107 351.32 107 352.64 107 354 C104.69 354 102.38 354 100 354 C100 354.99 100 355.98 100 357 C102.31 357 104.62 357 107 357 C107 357.33 107 357.66 107 358 C104.69 358 102.38 358 100 358 C100 358.66 100 359.32 100 360 C99.34 360 98.68 360 98 360 C98 358.02 98 356.04 98 354 C97.34 354 96.68 354 96 354 C96 355.98 96 357.96 96 360 C84.12 360 72.24 360 60 360 C60 358.02 60 356.04 60 354 C59.01 354 58.02 354 57 354 C57.20625 354.61875 57.4125 355.2375 57.625 355.875 C57.74875 356.57625 57.8725 357.2775 58 358 C57.34 358.66 56.68 359.32 56 360 C53.69 359.34 51.38 358.68 49 358 C49 357.67 49 357.34 49 357 C51.31 357 53.62 357 56 357 C56 356.01 56 355.02 56 354 C53.36 354 50.72 354 48 354 C48 352.68 48 351.36 48 350 C47.34 350 46.68 350 46 350 C46.33 351.32 46.66 352.64 47 354 C43.7 354 40.4 354 37 354 C37 352.68 37 351.36 37 350 C36.34 350 35.68 350 35 350 C35 351.32 35 352.64 35 354 C24.44 354 13.88 354 3 354 C3 352.68 3 351.36 3 350 C2.34 350 1.68 350 1 350 C1.33 351.32 1.66 352.64 2 354 C1.34 354 0.68 354 0 354 C0 316.38 0 278.76 0 240 C0.66 241.32 1.32 242.64 2 244 C1.67 244.99 1.34 245.98 1 247 C1.66 247 2.32 247 3 247 C3 244.69 3 242.38 3 240 C3.99 240 4.98 240 6 240 C6 239.01 6 238.02 6 237 C5.01 237 4.02 237 3 237 C3 234.69 3 232.38 3 230 C2.34 230 1.68 230 1 230 C1.20625 230.598125 1.4125 231.19625 1.625 231.8125 C2 234 2 234 0 237 C0 189.81 0 142.62 0 94 C0.33 94 0.66 94 1 94 C1 107.2 1 120.4 1 134 C1.66 134 2.32 134 3 134 C3 120.8 3 107.6 3 94 C4.485 93.505 4.485 93.505 6 93 C6 92.34 6 91.68 6 91 C5.01 91 4.02 91 3 91 C3 81.43 3 71.86 3 62 C2.34 62 1.68 62 1 62 C1 71.57 1 81.14 1 91 C0.67 91 0.34 91 0 91 C0 60.97 0 30.94 0 0 Z M280 1 C280 1.66 280 2.32 280 3 C298.81 3 317.62 3 337 3 C337 2.34 337 1.68 337 1 C318.19 1 299.38 1 280 1 Z M66 8 C67 10 67 10 67 10 Z M354 17 C354 18.65 354 20.3 354 22 C354.99 21.67 355.98 21.34 357 21 C357 19.68 357 18.36 357 17 C356.01 17 355.02 17 354 17 Z M1 23 C1 26.3 1 29.6 1 33 C1.66 33 2.32 33 3 33 C3 29.7 3 26.4 3 23 C2.34 23 1.68 23 1 23 Z M354 50 C354 55.61 354 61.22 354 67 C354.99 66.67 355.98 66.34 357 66 C357 61.05 357 56.1 357 51 C356.01 50.67 355.02 50.34 354 50 Z M8 91 C8 91.99 8 92.98 8 94 C8.66 94 9.32 94 10 94 C10 93.01 10 92.02 10 91 C9.34 91 8.68 91 8 91 Z M354 113 C354 119.93 354 126.86 354 134 C354.99 134 355.98 134 357 134 C357 127.4 357 120.8 357 114 C356.01 113.67 355.02 113.34 354 113 Z M1 158 C1 176.15 1 194.3 1 213 C1.66 213 2.32 213 3 213 C3 194.85 3 176.7 3 158 C2.34 158 1.68 158 1 158 Z M354 185 C354 188.3 354 191.6 354 195 C354.99 195 355.98 195 357 195 C357 192.03 357 189.06 357 186 C356.01 185.67 355.02 185.34 354 185 Z M354 219 C354 222.3 354 225.6 354 229 C354.99 228.67 355.98 228.34 357 228 C357 225.03 357 222.06 357 219 C356.01 219 355.02 219 354 219 Z M8 237 C8 237.99 8 238.98 8 240 C8.66 240 9.32 240 10 240 C10 239.01 10 238.02 10 237 C9.34 237 8.68 237 8 237 Z M354 287 C354 297.56 354 308.12 354 319 C354.99 318.67 355.98 318.34 357 318 C357 307.77 357 297.54 357 287 C356.01 287 355.02 287 354 287 Z M1 316 C1 318.97 1 321.94 1 325 C1.66 325 2.32 325 3 325 C3 322.03 3 319.06 3 316 C2.34 316 1.68 316 1 316 Z M39 350 C39 350.66 39 351.32 39 352 C40.65 352 42.3 352 44 352 C44 351.34 44 350.68 44 350 C42.35 350 40.7 350 39 350 Z M111 350 C112 352 112 352 112 352 Z M151 350 C152 352 152 352 152 352 Z M313 354 C313 354.99 313 355.98 313 357 C317.29 357 321.58 357 326 357 C326 356.01 326 355.02 326 354 C321.71 354 317.42 354 313 354 Z " fill="#D5BE96" transform="translate(0,0)"/>
<path d="M0 0 C4.29 0 8.58 0 13 0 C12.67 1.32 12.34 2.64 12 4 C12.66 3.67 13.32 3.34 14 3 C14 2.01 14 1.02 14 0 C29.84 0 45.68 0 62 0 C62 0.33 62 0.66 62 1 C46.82 1 31.64 1 16 1 C16 1.66 16 2.32 16 3 C31.18 3 46.36 3 62 3 C62 5.31 62 7.62 62 10 C62.66 10 63.32 10 64 10 C64 8.02 64 6.04 64 4 C65.65 4 67.3 4 69 4 C69 5.98 69 7.96 69 10 C69.66 10 70.32 10 71 10 C71 7.69 71 5.38 71 3 C76.94 3 82.88 3 89 3 C89 2.34 89 1.68 89 1 C83.06 1 77.12 1 71 1 C71 0.67 71 0.34 71 0 C77.93 0 84.86 0 92 0 C91.67 1.32 91.34 2.64 91 4 C91.66 4 92.32 4 93 4 C93 2.68 93 1.36 93 0 C99.93 0 106.86 0 114 0 C114 1.32 114 2.64 114 4 C114.66 4 115.32 4 116 4 C115.505 2.02 115.505 2.02 115 0 C115.99 0 116.98 0 118 0 C118 3.3 118 6.6 118 10 C118.66 10 119.32 10 120 10 C120 8.02 120 6.04 120 4 C120.33 4 120.66 4 121 4 C121 5.98 121 7.96 121 10 C121.66 10 122.32 10 123 10 C123 6.7 123 3.4 123 0 C134.88 0 146.76 0 159 0 C159 1.32 159 2.64 159 4 C159.66 4 160.32 4 161 4 C161 2.68 161 1.36 161 0 C169.25 0 177.5 0 186 0 C186 1.32 186 2.64 186 4 C186.66 4 187.32 4 188 4 C187.67 2.68 187.34 1.36 187 0 C188.65 0 190.3 0 192 0 C191.34 0.33 190.68 0.66 190 1 C190 1.66 190 2.32 190 3 C190.66 3 191.32 3 192 3 C192.33 5.31 192.66 7.62 193 10 C193.33 10 193.66 10 194 10 C194.33 7.69 194.66 5.38 195 3 C197.31 3 199.62 3 202 3 C202 2.34 202 1.68 202 1 C199.69 1 197.38 1 195 1 C195 0.67 195 0.34 195 0 C197.97 0 200.94 0 204 0 C204 1.32 204 2.64 204 4 C204.66 4 205.32 4 206 4 C206 2.68 206 1.36 206 0 C229.1 0 252.2 0 276 0 C276 1.32 276 2.64 276 4 C276.66 4 277.32 4 278 4 C277.67 2.68 277.34 1.36 277 0 C297.46 0 317.92 0 339 0 C339 1.32 339 2.64 339 4 C339.66 4 340.32 4 341 4 C341 2.68 341 1.36 341 0 C347.27 0 353.54 0 360 0 C360 5.61 360 11.22 360 17 C359.34 17 358.68 17 358 17 C358 18.32 358 19.64 358 21 C358.66 21 359.32 21 360 21 C360 30.9 360 40.8 360 51 C359.34 51 358.68 51 358 51 C358 51.66 358 52.32 358 53 C358.66 53 359.32 53 360 53 C360 53.66 360 54.32 360 55 C359.34 55 358.68 55 358 55 C358 57.31 358 59.62 358 62 C358.66 62 359.32 62 360 62 C360 62.66 360 63.32 360 64 C359.34 64 358.68 64 358 64 C358 64.66 358 65.32 358 66 C358.66 66 359.32 66 360 66 C360 81.84 360 97.68 360 114 C359.34 114 358.68 114 358 114 C358 114.66 358 115.32 358 116 C358.66 116 359.32 116 360 116 C360 116.66 360 117.32 360 118 C359.34 118 358.68 118 358 118 C358 121.96 358 125.92 358 130 C358.66 130 359.32 130 360 130 C360 130.66 360 131.32 360 132 C359.34 132 358.68 132 358 132 C358 132.66 358 133.32 358 134 C358.66 134 359.32 134 360 134 C360 151.16 360 168.32 360 186 C359.34 186 358.68 186 358 186 C358 186.66 358 187.32 358 188 C358.66 188 359.32 188 360 188 C360 189.32 360 190.64 360 192 C359.34 192 358.68 192 358 192 C358 192.99 358 193.98 358 195 C358.66 195 359.32 195 360 195 C360 202.92 360 210.84 360 219 C359.34 219 358.68 219 358 219 C358 219.99 358 220.98 358 222 C358.66 222.33 359.32 222.66 360 223 C360 223.99 360 224.98 360 226 C359.34 226 358.68 226 358 226 C358 226.66 358 227.32 358 228 C358.66 228 359.32 228 360 228 C360 247.47 360 266.94 360 287 C359.34 287 358.68 287 358 287 C358 287.66 358 288.32 358 289 C358.66 289 359.32 289 360 289 C360 289.66 360 290.32 360 291 C359.34 291 358.68 291 358 291 C358 298.59 358 306.18 358 314 C358.66 314 359.32 314 360 314 C360 314.66 360 315.32 360 316 C359.34 316 358.68 316 358 316 C358 316.66 358 317.32 358 318 C358.66 318 359.32 318 360 318 C360 329.88 360 341.76 360 354 C358.02 354 356.04 354 354 354 C354 354.99 354 355.98 354 357 C355.98 357 357.96 357 360 357 C360 357.33 360 357.66 360 358 C358.02 358 356.04 358 354 358 C354 358.66 354 359.32 354 360 C353.34 360 352.68 360 352 360 C352 358.02 352 356.04 352 354 C351.34 354 350.68 354 350 354 C350 355.98 350 357.96 350 360 C343.4 360 336.8 360 330 360 C330 358.02 330 356.04 330 354 C329.01 354 328.02 354 327 354 C327.20625 354.61875 327.4125 355.2375 327.625 355.875 C327.74875 356.57625 327.8725 357.2775 328 358 C327.34 358.66 326.68 359.32 326 360 C325.67 359.67 325.34 359.34 325 359 C323.189715 358.90120435 321.37547273 358.87028486 319.5625 358.875 C318.07943359 358.87113281 318.07943359 358.87113281 316.56640625 358.8671875 C314.01090924 358.82771585 314.01090924 358.82771585 312 360 C311 357 311 357 312 354 C311.01 354 310.02 354 309 354 C309 355.98 309 357.96 309 360 C284.58 360 260.16 360 235 360 C235 358.02 235 356.04 235 354 C233.68 354 232.36 354 231 354 C231 355.98 231 357.96 231 360 C225.06 360 219.12 360 213 360 C213 358.02 213 356.04 213 354 C212.34 354 211.68 354 211 354 C211 355.98 211 357.96 211 360 C210.67 360 210.34 360 210 360 C210 358.02 210 356.04 210 354 C209.34 354 208.68 354 208 354 C208 355.98 208 357.96 208 360 C190.84 360 173.68 360 156 360 C156 356.7 156 353.4 156 350 C155.34 350 154.68 350 154 350 C154 353.3 154 356.6 154 360 C153.34 360 152.68 360 152 360 C152 358.02 152 356.04 152 354 C151.01 354 150.02 354 149 354 C149.33 352.68 149.66 351.36 150 350 C149.01 350 148.02 350 147 350 C147 351.32 147 352.64 147 354 C136.77 354 126.54 354 116 354 C116 352.68 116 351.36 116 350 C115.34 350 114.68 350 114 350 C114 351.32 114 352.64 114 354 C112.35 354 110.7 354 109 354 C109 352.68 109 351.36 109 350 C108.34 350 107.68 350 107 350 C107 351.32 107 352.64 107 354 C104.69 354 102.38 354 100 354 C100 354.99 100 355.98 100 357 C102.31 357 104.62 357 107 357 C107 357.33 107 357.66 107 358 C104.69 358 102.38 358 100 358 C100 358.66 100 359.32 100 360 C99.34 360 98.68 360 98 360 C98 358.02 98 356.04 98 354 C97.34 354 96.68 354 96 354 C96 355.98 96 357.96 96 360 C84.12 360 72.24 360 60 360 C60 358.02 60 356.04 60 354 C59.01 354 58.02 354 57 354 C57.20625 354.61875 57.4125 355.2375 57.625 355.875 C57.74875 356.57625 57.8725 357.2775 58 358 C57.34 358.66 56.68 359.32 56 360 C53.69 359.34 51.38 358.68 49 358 C49 357.67 49 357.34 49 357 C51.31 357 53.62 357 56 357 C56 356.01 56 355.02 56 354 C53.36 354 50.72 354 48 354 C48 352.68 48 351.36 48 350 C47.34 350 46.68 350 46 350 C46.33 351.32 46.66 352.64 47 354 C43.7 354 40.4 354 37 354 C37 352.68 37 351.36 37 350 C36.34 350 35.68 350 35 350 C35 351.32 35 352.64 35 354 C24.44 354 13.88 354 3 354 C3 352.68 3 351.36 3 350 C2.34 350 1.68 350 1 350 C1.33 351.32 1.66 352.64 2 354 C1.34 354 0.68 354 0 354 C0 316.38 0 278.76 0 240 C0.66 241.32 1.32 242.64 2 244 C1.67 244.99 1.34 245.98 1 247 C1.66 247 2.32 247 3 247 C3 244.69 3 242.38 3 240 C3.99 240 4.98 240 6 240 C6 239.01 6 238.02 6 237 C5.01 237 4.02 237 3 237 C3 234.69 3 232.38 3 230 C2.34 230 1.68 230 1 230 C1.20625 230.598125 1.4125 231.19625 1.625 231.8125 C2 234 2 234 0 237 C0 189.81 0 142.62 0 94 C0.33 94 0.66 94 1 94 C1 107.2 1 120.4 1 134 C1.66 134 2.32 134 3 134 C3 120.8 3 107.6 3 94 C4.485 93.505 4.485 93.505 6 93 C6 92.34 6 91.68 6 91 C5.01 91 4.02 91 3 91 C3 81.43 3 71.86 3 62 C2.34 62 1.68 62 1 62 C1 71.57 1 81.14 1 91 C0.67 91 0.34 91 0 91 C0 60.97 0 30.94 0 0 Z M280 1 C280 1.66 280 2.32 280 3 C298.81 3 317.62 3 337 3 C337 2.34 337 1.68 337 1 C318.19 1 299.38 1 280 1 Z M4 4 C3.97312721 5.81242052 3.95366285 7.62495233 3.9375 9.4375 C3.92589844 10.44683594 3.91429687 11.45617187 3.90234375 12.49609375 C3.71387324 14.94021067 3.71387324 14.94021067 5 16 C6.99958364 16.04080783 9.00045254 16.04254356 11 16 C10.979375 16.969375 10.95875 17.93875 10.9375 18.9375 C10.64381501 21.87465895 10.64381501 21.87465895 12 23 C13.68608966 23.07205511 15.37500659 23.08386068 17.0625 23.0625 C17.98160156 23.05347656 18.90070312 23.04445313 19.84765625 23.03515625 C20.55792969 23.02355469 21.26820312 23.01195313 22 23 C22 24.32 22 25.64 22 27 C21.28972656 26.98839844 20.57945313 26.97679688 19.84765625 26.96484375 C18.92855469 26.95582031 18.00945313 26.94679688 17.0625 26.9375 C15.68771484 26.92009766 15.68771484 26.92009766 14.28515625 26.90234375 C12.03406673 26.74050951 12.03406673 26.74050951 11 28 C10.95919217 29.99958364 10.95745644 32.00045254 11 34 C9.02 34 7.04 34 5 34 C5 41.26 5 48.52 5 56 C6.98 56.33 8.96 56.66 11 57 C11.33 67.56 11.66 78.12 12 89 C16.95 89 21.9 89 27 89 C27 90.98 27 92.96 27 95 C23.37 95 19.74 95 16 95 C16 97.31 16 99.62 16 102 C14.68 102 13.36 102 12 102 C12 105.3 12 108.6 12 112 C12.99 112.33 13.98 112.66 15 113 C15.6875 115.0625 15.6875 115.0625 16 117 C14.35 117 12.7 117 11 117 C11 124.26 11 131.52 11 139 C8.69 139 6.38 139 4 139 C4 142.96 4 146.92 4 151 C6.31 151 8.62 151 11 151 C11 156.94 11 162.88 11 169 C14.63 169 18.26 169 22 169 C22 170.32 22 171.64 22 173 C21.28972656 172.98839844 20.57945313 172.97679687 19.84765625 172.96484375 C18.92855469 172.95582031 18.00945313 172.94679687 17.0625 172.9375 C15.68771484 172.92009766 15.68771484 172.92009766 14.28515625 172.90234375 C12.03406673 172.74050951 12.03406673 172.74050951 11 174 C10.91131701 176.95705321 10.88479704 179.89065056 10.90234375 182.84765625 C10.9037587 183.7340831 10.90517365 184.62050995 10.90663147 185.53379822 C10.91224785 188.37673254 10.92480309 191.21958931 10.9375 194.0625 C10.94251289 195.98502491 10.94707616 197.90755104 10.95117188 199.83007812 C10.96222259 204.55341549 10.97949817 209.27669458 11 214 C9.02 214 7.04 214 5 214 C5 218.95 5 223.9 5 229 C7.31 229 9.62 229 12 229 C12 231.31 12 233.62 12 236 C16.95 236 21.9 236 27 236 C27 234.02 27 232.04 27 230 C30.63 230 34.26 230 38 230 C38 232.31 38 234.62 38 237 C34.7 237 31.4 237 28 237 C28 237.99 28 238.98 28 240 C29.98 240 31.96 240 34 240 C34 242.64 34 245.28 34 248 C31.69 248 29.38 248 27 248 C27 245.69 27 243.38 27 241 C23.37 241 19.74 241 16 241 C15.67 242.98 15.34 244.96 15 247 C11.7 247.33 8.4 247.66 5 248 C5 267.8 5 287.6 5 308 C6.98 308 8.96 308 11 308 C11 311.96 11 315.92 11 320 C14.96 320 18.92 320 23 320 C23 318.35 23 316.7 23 315 C24.32 315 25.64 315 27 315 C27 318.96 27 322.92 27 327 C23.37 327 19.74 327 16 327 C16 328.32 16 329.64 16 331 C12.04 331 8.08 331 4 331 C4 332.98 4 334.96 4 337 C7.96 337 11.92 337 16 337 C16 338.98 16 340.96 16 343 C14.68 343 13.36 343 12 343 C12 344.65 12 346.3 12 348 C19.26 348 26.52 348 34 348 C34 346.02 34 344.04 34 342 C35.32 342 36.64 342 38 342 C38 338.04 38 334.08 38 330 C40.31 330 42.62 330 45 330 C45 333.96 45 337.92 45 342 C48.96 342 52.92 342 57 342 C57 343.98 57 345.96 57 348 C60.3 348 63.6 348 67 348 C67 344.37 67 340.74 67 337 C68.65 337 70.3 337 72 337 C72 342.28 72 347.56 72 353 C77.94 353 83.88 353 90 353 C90 351.68 90 350.36 90 349 C95.28 349 100.56 349 106 349 C106 346.69 106 344.38 106 342 C109.63 342.33 113.26 342.66 117 343 C117.33 344.65 117.66 346.3 118 348 C126.91 348 135.82 348 145 348 C145 345.69 145 343.38 145 341 C146.65 341 148.3 341 150 341 C150 339.68 150 338.36 150 337 C152.64 337 155.28 337 158 337 C158 340.63 158 344.26 158 348 C159.32 348 160.64 348 162 348 C162 349.65 162 351.3 162 353 C175.2 353 188.4 353 202 353 C202 351.35 202 349.7 202 348 C207.61 348 213.22 348 219 348 C219 349.65 219 351.3 219 353 C222.3 353 225.6 353 229 353 C229.33 349.37 229.66 345.74 230 342 C231.98 341.67 233.96 341.34 236 341 C236 339.68 236 338.36 236 337 C237.32 337.33 238.64 337.66 240 338 C240.33 339.65 240.66 341.3 241 343 C239.68 343 238.36 343 237 343 C237 346.3 237 349.6 237 353 C259.11 353 281.22 353 304 353 C304 351.68 304 350.36 304 349 C305.32 349 306.64 349 308 349 C308 346.69 308 344.38 308 342 C306.68 342 305.36 342 304 342 C304 338.37 304 334.74 304 331 C305.65 331 307.3 331 309 331 C309 332.98 309 334.96 309 337 C310.98 337 312.96 337 315 337 C315 338.65 315 340.3 315 342 C316.65 342 318.3 342 320 342 C320 344.31 320 346.62 320 349 C325.94 349 331.88 349 338 349 C338 350.32 338 351.64 338 353 C339.32 353 340.64 353 342 353 C342 351.35 342 349.7 342 348 C345.63 348 349.26 348 353 348 C353 340.74 353 333.48 353 326 C351.68 326 350.36 326 349 326 C349 318.74 349 311.48 349 304 C346.69 304 344.38 304 342 304 C342 301.69 342 299.38 342 297 C340.68 297 339.36 297 338 297 C338 295.68 338 294.36 338 293 C338.71027344 293.01160156 339.42054688 293.02320313 340.15234375 293.03515625 C341.07144531 293.04417969 341.99054688 293.05320312 342.9375 293.0625 C344.31228516 293.07990234 344.31228516 293.07990234 345.71484375 293.09765625 C347.96593327 293.25949049 347.96593327 293.25949049 349 292 C349.07226502 290.14712498 349.0838122 288.29166122 349.0625 286.4375 C349.04896484 284.91962891 349.04896484 284.91962891 349.03515625 283.37109375 C349.02355469 282.58863281 349.01195312 281.80617188 349 281 C350.32 281 351.64 281 353 281 C353 266.15 353 251.3 353 236 C349.37 236 345.74 236 342 236 C342 234.02 342 232.04 342 230 C340.35 230 338.7 230 337 230 C337 228.35 337 226.7 337 225 C338.65 225 340.3 225 342 225 C342 226.32 342 227.64 342 229 C343.98 229 345.96 229 348 229 C348 223.72 348 218.44 348 213 C349.65 213 351.3 213 353 213 C353 209.7 353 206.4 353 203 C351.35 203 349.7 203 348 203 C348 200.69 348 198.38 348 196 C344.37 196 340.74 196 337 196 C337.33 194.68 337.66 193.36 338 192 C341.3 191.67 344.6 191.34 348 191 C348.33 189.02 348.66 187.04 349 185 C350.32 184.67 351.64 184.34 353 184 C353 169.48 353 154.96 353 140 C351.68 140 350.36 140 349 140 C349 136.04 349 132.08 349 128 C345.37 128 341.74 128 338 128 C338 126.35 338 124.7 338 123 C341.3 123 344.6 123 348 123 C348.33 119.7 348.66 116.4 349 113 C350.32 112.67 351.64 112.34 353 112 C353 98.8 353 85.6 353 72 C351.68 72 350.36 72 349 72 C349.01740234 70.93458984 349.01740234 70.93458984 349.03515625 69.84765625 C349.04417969 68.92855469 349.05320312 68.00945312 349.0625 67.0625 C349.07990234 65.68771484 349.07990234 65.68771484 349.09765625 64.28515625 C349.25949049 62.03406673 349.25949049 62.03406673 348 61 C346.31816052 60.76712992 344.6287584 60.58735834 342.9375 60.4375 C342.01839844 60.35371094 341.09929687 60.26992188 340.15234375 60.18359375 C339.08693359 60.09271484 339.08693359 60.09271484 338 60 C337.67 58.68 337.34 57.36 337 56 C340.63 56 344.26 56 348 56 C348 52.04 348 48.08 348 44 C349.65 44 351.3 44 353 44 C353 37.07 353 30.14 353 23 C351.68 23 350.36 23 349 23 C349 19.37 349 15.74 349 12 C350.32 12 351.64 12 353 12 C353 9.36 353 6.72 353 4 C349.37 4 345.74 4 342 4 C342 6.31 342 8.62 342 11 C330.78 11 319.56 11 308 11 C308 14.63 308 18.26 308 22 C306.68 22 305.36 22 304 22 C304 18.37 304 14.74 304 11 C294.1 11 284.2 11 274 11 C274 9.02 274 7.04 274 5 C263.11 5 252.22 5 241 5 C241 8.63 241 12.26 241 16 C239.02 15.505 239.02 15.505 237 15 C236.67 11.7 236.34 8.4 236 5 C228.74 5 221.48 5 214 5 C214 7.31 214 9.62 214 12 C210.37 12 206.74 12 203 12 C203 13.32 203 14.64 203 16 C199.04 16 195.08 16 191 16 C191 14.68 191 13.36 191 12 C189.02 11.67 187.04 11.34 185 11 C184.67 9.02 184.34 7.04 184 5 C179.05 5 174.1 5 169 5 C169 7.31 169 9.62 169 12 C167.02 12 165.04 12 163 12 C163 13.32 163 14.64 163 16 C161.35 16 159.7 16 158 16 C158 17.98 158 19.96 158 22 C159.32 22 160.64 22 162 22 C162 23.65 162 25.3 162 27 C160.35 27 158.7 27 157 27 C157 25.68 157 24.36 157 23 C153.37 23 149.74 23 146 23 C146 20.36 146 17.72 146 15 C149.63 15 153.26 15 157 15 C157 11.7 157 8.4 157 5 C147.43 5 137.86 5 128 5 C128 6.98 128 8.96 128 11 C126.68 11 125.36 11 124 11 C123.67 12.32 123.34 13.64 123 15 C121.02 15.33 119.04 15.66 117 16 C117 14.35 117 12.7 117 11 C115.35 11 113.7 11 112 11 C112 9.02 112 7.04 112 5 C108.7 5 105.4 5 102 5 C102 6.98 102 8.96 102 11 C92.1 11 82.2 11 72 11 C72 16.28 72 21.56 72 27 C70.68 27 69.36 27 68 27 C68 23.04 68 19.08 68 15 C65.69 15 63.38 15 61 15 C61 13.68 61 12.36 61 11 C44.83 11 28.66 11 12 11 C12 8.69 12 6.38 12 4 C9.36 4 6.72 4 4 4 Z M66 8 C67 10 67 10 67 10 Z M354 17 C354 18.65 354 20.3 354 22 C354.99 21.67 355.98 21.34 357 21 C357 19.68 357 18.36 357 17 C356.01 17 355.02 17 354 17 Z M1 23 C1 26.3 1 29.6 1 33 C1.66 33 2.32 33 3 33 C3 29.7 3 26.4 3 23 C2.34 23 1.68 23 1 23 Z M354 50 C354 55.61 354 61.22 354 67 C354.99 66.67 355.98 66.34 357 66 C357 61.05 357 56.1 357 51 C356.01 50.67 355.02 50.34 354 50 Z M8 91 C8 91.99 8 92.98 8 94 C8.66 94 9.32 94 10 94 C10 93.01 10 92.02 10 91 C9.34 91 8.68 91 8 91 Z M354 113 C354 119.93 354 126.86 354 134 C354.99 134 355.98 134 357 134 C357 127.4 357 120.8 357 114 C356.01 113.67 355.02 113.34 354 113 Z M1 158 C1 176.15 1 194.3 1 213 C1.66 213 2.32 213 3 213 C3 194.85 3 176.7 3 158 C2.34 158 1.68 158 1 158 Z M354 185 C354 188.3 354 191.6 354 195 C354.99 195 355.98 195 357 195 C357 192.03 357 189.06 357 186 C356.01 185.67 355.02 185.34 354 185 Z M354 219 C354 222.3 354 225.6 354 229 C354.99 228.67 355.98 228.34 357 228 C357 225.03 357 222.06 357 219 C356.01 219 355.02 219 354 219 Z M8 237 C8 237.99 8 238.98 8 240 C8.66 240 9.32 240 10 240 C10 239.01 10 238.02 10 237 C9.34 237 8.68 237 8 237 Z M354 287 C354 297.56 354 308.12 354 319 C354.99 318.67 355.98 318.34 357 318 C357 307.77 357 297.54 357 287 C356.01 287 355.02 287 354 287 Z M1 316 C1 318.97 1 321.94 1 325 C1.66 325 2.32 325 3 325 C3 322.03 3 319.06 3 316 C2.34 316 1.68 316 1 316 Z M39 350 C39 350.66 39 351.32 39 352 C40.65 352 42.3 352 44 352 C44 351.34 44 350.68 44 350 C42.35 350 40.7 350 39 350 Z M111 350 C112 352 112 352 112 352 Z M151 350 C152 352 152 352 152 352 Z M313 354 C313 354.99 313 355.98 313 357 C317.29 357 321.58 357 326 357 C326 356.01 326 355.02 326 354 C321.71 354 317.42 354 313 354 Z " fill="#9B886B" transform="translate(0,0)"/>
<path d="M0 0 C15.84 0 31.68 0 48 0 C48 0.33 48 0.66 48 1 C32.82 1 17.64 1 2 1 C2 1.66 2 2.32 2 3 C17.18 3 32.36 3 48 3 C48 5.31 48 7.62 48 10 C48.66 10 49.32 10 50 10 C50 8.02 50 6.04 50 4 C51.65 4 53.3 4 55 4 C55 5.98 55 7.96 55 10 C55.66 10 56.32 10 57 10 C57 15.28 57 20.56 57 26 C56.01 26 55.02 26 54 26 C54 22.37 54 18.74 54 15 C51.69 15 49.38 15 47 15 C47 13.68 47 12.36 47 11 C30.83 11 14.66 11 -2 11 C-2 8.69 -2 6.38 -2 4 C-1.34 3.67 -0.68 3.34 0 3 C0 2.01 0 1.02 0 0 Z M52 8 C53 10 53 10 53 10 Z " fill="#98866A" transform="translate(14,0)"/>
<path d="M0 0 C8.25 0 16.5 0 25 0 C25 1.32 25 2.64 25 4 C25.66 4 26.32 4 27 4 C26.505 2.02 26.505 2.02 26 0 C27.65 0 29.3 0 31 0 C30.34 0.33 29.68 0.66 29 1 C29 1.66 29 2.32 29 3 C29.66 3 30.32 3 31 3 C31 6.96 31 10.92 31 15 C34.3 15 37.6 15 41 15 C41 13.68 41 12.36 41 11 C44.63 11 48.26 11 52 11 C52 8.69 52 6.38 52 4 C59.92 4 67.84 4 76 4 C76 7.63 76 11.26 76 15 C75.67 15 75.34 15 75 15 C75 11.7 75 8.4 75 5 C67.74 5 60.48 5 53 5 C53 7.31 53 9.62 53 12 C49.37 12 45.74 12 42 12 C42 13.32 42 14.64 42 16 C38.04 16 34.08 16 30 16 C30 14.68 30 13.36 30 12 C28.5459375 12.0309375 28.5459375 12.0309375 27.0625 12.0625 C24 12 24 12 23 11 C23 9.02 23 7.04 23 5 C18.05 5 13.1 5 8 5 C8 7.31 8 9.62 8 12 C6.02 12 4.04 12 2 12 C2 13.32 2 14.64 2 16 C0.35 16 -1.3 16 -3 16 C-3 17.98 -3 19.96 -3 22 C-1.68 22 -0.36 22 1 22 C1 23.65 1 25.3 1 27 C-0.65 27 -2.3 27 -4 27 C-4 25.68 -4 24.36 -4 23 C-7.63 23 -11.26 23 -15 23 C-15 20.36 -15 17.72 -15 15 C-11.37 15 -7.74 15 -4 15 C-4 11.7 -4 8.4 -4 5 C-13.24 5 -22.48 5 -32 5 C-32 4.67 -32 4.34 -32 4 C-22.43 4 -12.86 4 -3 4 C-3 7.63 -3 11.26 -3 15 C-2.01 15 -1.02 15 0 15 C-0.33 14.34 -0.66 13.68 -1 13 C-1.09555417 11.54420413 -1.12984691 10.0839204 -1.125 8.625 C-1.12886719 7.46871094 -1.12886719 7.46871094 -1.1328125 6.2890625 C-1 4 -1 4 0 0 Z " fill="#A08D6F" transform="translate(161,0)"/>
<path d="M0 0 C4.29 0 8.58 0 13 0 C12.67 1.32 12.34 2.64 12 4 C9.36 4 6.72 4 4 4 C4.33 7.63 4.66 11.26 5 15 C7.97 15.495 7.97 15.495 11 16 C11.33 17.98 11.66 19.96 12 22 C15.3 22.33 18.6 22.66 22 23 C22 24.32 22 25.64 22 27 C17.05 27.495 17.05 27.495 12 28 C11.67 29.98 11.34 31.96 11 34 C9.02 34 7.04 34 5 34 C5 41.26 5 48.52 5 56 C6.98 56 8.96 56 11 56 C12 57 12 57 12.11352539 60.05102539 C12.11336634 61.39991271 12.10767612 62.74880614 12.09765625 64.09765625 C12.0962413 64.80651474 12.09482635 65.51537323 12.09336853 66.24571228 C12.08775443 68.51801712 12.07519963 70.79022475 12.0625 73.0625 C12.05748681 74.59960796 12.05292359 76.13671745 12.04882812 77.67382812 C12.0386297 81.44928667 12.01905732 85.22453404 12 89 C16.95 89 21.9 89 27 89 C27 90.98 27 92.96 27 95 C23.37 95 19.74 95 16 95 C16 97.31 16 99.62 16 102 C14.68 102 13.36 102 12 102 C12 105.3 12 108.6 12 112 C12.99 112.33 13.98 112.66 15 113 C13.68 113 12.36 113 11 113 C11 109.04 11 105.08 11 101 C12.32 101 13.64 101 15 101 C15 98.69 15 96.38 15 94 C18.63 94 22.26 94 26 94 C26 93.01 26 92.02 26 91 C20.72 91 15.44 91 10 91 C10 79.78 10 68.56 10 57 C8.02 57 6.04 57 4 57 C3.67 45.78 3.34 34.56 3 23 C2.01 23 1.02 23 0 23 C0 15.41 0 7.82 0 0 Z " fill="#99866A" transform="translate(0,0)"/>
<path d="M0 0 C2.64 0 5.28 0 8 0 C8 3.63 8 7.26 8 11 C9.32 11 10.64 11 12 11 C12 12.65 12 14.3 12 16 C25.2 16 38.4 16 52 16 C52 14.35 52 12.7 52 11 C57.61 11 63.22 11 69 11 C69 12.65 69 14.3 69 16 C72.3 16 75.6 16 79 16 C79 12.37 79 8.74 79 5 C79.33 5 79.66 5 80 5 C80 8.96 80 12.92 80 17 C76.04 17 72.08 17 68 17 C68 15.35 68 13.7 68 12 C63.05 12 58.1 12 53 12 C53 13.65 53 15.3 53 17 C39.14 17 25.28 17 11 17 C11 15.35 11 13.7 11 12 C9.68 12 8.36 12 7 12 C7 8.37 7 4.74 7 1 C5.02 1 3.04 1 1 1 C1 2.65 1 4.3 1 6 C-0.32 6 -1.64 6 -3 6 C-2.814375 7.0725 -2.62875 8.145 -2.4375 9.25 C-2 13 -2 13 -3 17 C-13.23 17 -23.46 17 -34 17 C-34 13.37 -34 9.74 -34 6 C-36.97 6 -39.94 6 -43 6 C-43 7.98 -43 9.96 -43 12 C-43.33 12 -43.66 12 -44 12 C-44 9.69 -44 7.38 -44 5 C-42.18757948 4.97312721 -40.37504767 4.95366285 -38.5625 4.9375 C-37.55316406 4.92589844 -36.54382813 4.91429687 -35.50390625 4.90234375 C-33 5 -33 5 -32 6 C-32 7.65 -32 9.3 -32 11 C-23.09 11 -14.18 11 -5 11 C-5 8.69 -5 6.38 -5 4 C-3.35 4 -1.7 4 0 4 C0 2.68 0 1.36 0 0 Z " fill="#AE9A7B" transform="translate(150,337)"/>
<path d="M0 0 C3.96 0 7.92 0 12 0 C12 0.33 12 0.66 12 1 C8.7 1.33 5.4 1.66 2 2 C1.67 15.2 1.34 28.4 1 42 C-0.98 42 -2.96 42 -5 42 C-5 46.95 -5 51.9 -5 57 C-2.69 57 -0.38 57 2 57 C2 59.31 2 61.62 2 64 C6.95 64 11.9 64 17 64 C17 62.02 17 60.04 17 58 C20.63 58 24.26 58 28 58 C28 60.31 28 62.62 28 65 C24.7 65 21.4 65 18 65 C18 65.99 18 66.98 18 68 C19.98 68 21.96 68 24 68 C24 70.64 24 73.28 24 76 C21.69 76 19.38 76 17 76 C17 73.69 17 71.38 17 69 C13.37 69 9.74 69 6 69 C6 70.98 6 72.96 6 75 C5.67 75 5.34 75 5 75 C5 72.69 5 70.38 5 68 C8.63 68 12.26 68 16 68 C16 67.01 16 66.02 16 65 C11.05 65 6.1 65 1 65 C1 62.69 1 60.38 1 58 C-1.31 58 -3.62 58 -6 58 C-6 52.39 -6 46.78 -6 41 C-4.02 41 -2.04 41 0 41 C0 27.47 0 13.94 0 0 Z " fill="#AF9B7A" transform="translate(10,172)"/>
<path d="M0 0 C9.57 0 19.14 0 29 0 C29 3.63 29 7.26 29 11 C30.32 11 31.64 11 33 11 C33 9.68 33 8.36 33 7 C34.98 7 36.96 7 39 7 C39 4.69 39 2.38 39 0 C44.61 0 50.22 0 56 0 C56 2.31 56 4.62 56 7 C55.67 7 55.34 7 55 7 C55 5.02 55 3.04 55 1 C50.05 1 45.1 1 40 1 C40 3.31 40 5.62 40 8 C38.02 8 36.04 8 34 8 C34 9.32 34 10.64 34 12 C32.35 12 30.7 12 29 12 C29 13.98 29 15.96 29 18 C30.32 18 31.64 18 33 18 C33 19.65 33 21.3 33 23 C31.35 23 29.7 23 28 23 C28 21.68 28 20.36 28 19 C24.37 19 20.74 19 17 19 C17 16.36 17 13.72 17 11 C20.63 11 24.26 11 28 11 C28 7.7 28 4.4 28 1 C18.76 1 9.52 1 0 1 C0 0.67 0 0.34 0 0 Z " fill="#B9A382" transform="translate(129,4)"/>
<path d="M0 0 C0.33 0 0.66 0 1 0 C1 1.98 1 3.96 1 6 C-0.98 6 -2.96 6 -5 6 C-5 13.26 -5 20.52 -5 28 C-3.02 28 -1.04 28 1 28 C2 29 2 29 2.11352539 32.05102539 C2.11336634 33.39991271 2.10767612 34.74880614 2.09765625 36.09765625 C2.0962413 36.80651474 2.09482635 37.51537323 2.09336853 38.24571228 C2.08775443 40.51801712 2.07519963 42.79022475 2.0625 45.0625 C2.05748681 46.59960796 2.05292359 48.13671745 2.04882812 49.67382812 C2.0386297 53.44928667 2.01905732 57.22453404 2 61 C6.95 61 11.9 61 17 61 C17 62.98 17 64.96 17 67 C13.37 67 9.74 67 6 67 C6 69.31 6 71.62 6 74 C4.68 74 3.36 74 2 74 C2 77.3 2 80.6 2 84 C2.99 84.33 3.98 84.66 5 85 C3.68 85 2.36 85 1 85 C1 81.04 1 77.08 1 73 C2.32 73 3.64 73 5 73 C5 70.69 5 68.38 5 66 C8.63 66 12.26 66 16 66 C16 65.01 16 64.02 16 63 C10.72 63 5.44 63 0 63 C0 51.78 0 40.56 0 29 C-1.98 29 -3.96 29 -6 29 C-6 21.08 -6 13.16 -6 5 C-4.02 5 -2.04 5 0 5 C0 3.35 0 1.7 0 0 Z " fill="#B49F7E" transform="translate(10,28)"/>
<path d="M0 0 C1.65 0 3.3 0 5 0 C5 1.98 5 3.96 5 6 C6.98 6 8.96 6 11 6 C11 7.65 11 9.3 11 11 C10.67 10.01 10.34 9.02 10 8 C8.35 8 6.7 8 5 8 C5.33 8.99 5.66 9.98 6 11 C5.83988879 13.70123106 5.39559392 16.31875231 5 19 C3.68 19 2.36 19 1 19 C0.67 19.99 0.34 20.98 0 22 C0 20.68 0 19.36 0 18 C1.32 18 2.64 18 4 18 C4 15.69 4 13.38 4 11 C2.68 11 1.36 11 0 11 C0 7.37 0 3.74 0 0 Z " fill="#A89373" transform="translate(304,331)"/>
<path d="M0 0 C0.33 0 0.66 0 1 0 C1 3.63 1 7.26 1 11 C-0.65 11 -2.3 11 -4 11 C-4 16.28 -4 21.56 -4 27 C-5.98 27 -7.96 27 -10 27 C-10 28.98 -10 30.96 -10 33 C-10.33 33 -10.66 33 -11 33 C-11 31.02 -11 29.04 -11 27 C-12.65 27 -14.3 27 -16 27 C-16 25.35 -16 23.7 -16 22 C-14.35 22 -12.7 22 -11 22 C-11 23.32 -11 24.64 -11 26 C-9.02 26 -7.04 26 -5 26 C-5 20.72 -5 15.44 -5 10 C-3.35 10 -1.7 10 0 10 C0 6.7 0 3.4 0 0 Z " fill="#B09B7B" transform="translate(353,203)"/>
<path d="M0 0 C9.24 0 18.48 0 28 0 C28 0.99 28 1.98 28 3 C23.70834738 3.02891949 19.41671964 3.04677118 15.125 3.0625 C13.90167969 3.07087891 12.67835938 3.07925781 11.41796875 3.08789062 C9.66806641 3.09272461 9.66806641 3.09272461 7.8828125 3.09765625 C6.26463623 3.10551147 6.26463623 3.10551147 4.61376953 3.11352539 C2 3 2 3 0 2 C0 1.34 0 0.68 0 0 Z " fill="#958269" transform="translate(118,350)"/>
<path d="M0 0 C3.63 0 7.26 0 11 0 C11 1.98 11 3.96 11 6 C7.37 6 3.74 6 0 6 C0 4.02 0 2.04 0 0 Z " fill="#998668" transform="translate(27,230)"/>
<path d="M0 0 C3.3 0 6.6 0 10 0 C10 1.98 10 3.96 10 6 C6.7 6 3.4 6 0 6 C0 4.02 0 2.04 0 0 Z " fill="#9A8467" transform="translate(147,16)"/>
<path d="M0 0 C0.66 0.33 1.32 0.66 2 1 C2.1875 3.875 2.1875 3.875 2 7 C-1.42094242 9.28062828 -2.68187222 9.21925007 -6.6875 9.125 C-8.17830078 9.09792969 -8.17830078 9.09792969 -9.69921875 9.0703125 C-10.45847656 9.04710937 -11.21773438 9.02390625 -12 9 C-12 8.01 -12 7.02 -12 6 C-6.555 5.505 -6.555 5.505 -1 5 C-0.67 3.35 -0.34 1.7 0 0 Z " fill="#948162" transform="translate(350,186)"/>
<path d="M0 0 C1.65 0.33 3.3 0.66 5 1 C5 2.65 5 4.3 5 6 C3.68 6 2.36 6 1 6 C1 9.3 1 12.6 1 16 C0.67 16 0.34 16 0 16 C0 12.37 0 8.74 0 5 C-1.98 5 -3.96 5 -6 5 C-6 4.67 -6 4.34 -6 4 C-4.02 4 -2.04 4 0 4 C0 2.68 0 1.36 0 0 Z " fill="#B39E7D" transform="translate(236,337)"/>
<path d="M0 0 C5.28 0 10.56 0 16 0 C16 0.99 16 1.98 16 3 C10.72 2.67 5.44 2.34 0 2 C0 1.34 0 0.68 0 0 Z " fill="#938062" transform="translate(10,237)"/>
<path d="M0 0 C10.23 0 20.46 0 31 0 C31 0.33 31 0.66 31 1 C20.77 1 10.54 1 0 1 C0 0.67 0 0.34 0 0 Z " fill="#98886F" transform="translate(116,357)"/>
<path d="M0 0 C10.23 0 20.46 0 31 0 C31 0.33 31 0.66 31 1 C20.77 1 10.54 1 0 1 C0 0.67 0 0.34 0 0 Z " fill="#988771" transform="translate(4,357)"/>
<path d="M0 0 C1.65 0 3.3 0 5 0 C5 1.98 5 3.96 5 6 C3.35 6 1.7 6 0 6 C0 4.02 0 2.04 0 0 Z " fill="#978363" transform="translate(28,241)"/>
<path d="M0 0 C1.65 0 3.3 0 5 0 C5 1.65 5 3.3 5 5 C3.35 5 1.7 5 0 5 C0 3.35 0 1.7 0 0 Z " fill="#A79072" transform="translate(157,22)"/>
<path d="M0 0 C0.66 0 1.32 0 2 0 C2.33 2.64 2.66 5.28 3 8 C1.68 8.33 0.36 8.66 -1 9 C-0.67 6.03 -0.34 3.06 0 0 Z " fill="#927F61" transform="translate(305,332)"/>
<path d="M0 0 C0.99 0.33 1.98 0.66 3 1 C2.67 3.64 2.34 6.28 2 9 C1.34 9 0.68 9 0 9 C0 6.03 0 3.06 0 0 Z " fill="#DAC4A1" transform="translate(237,343)"/>
<path d="M0 0 C1.32 0 2.64 0 4 0 C3.67 0.66 3.34 1.32 3 2 C2.34 1.67 1.68 1.34 1 1 C1 2.98 1 4.96 1 7 C1.99 7.33 2.98 7.66 4 8 C2.35 8.33 0.7 8.66 -1 9 C-0.67 6.03 -0.34 3.06 0 0 Z " fill="#DCC6A0" transform="translate(6,6)"/>
<path d="M0 0 C1 4 1 4 1 4 Z " fill="#99866A" transform="translate(119,0)"/>
<path d="" fill="#9D8B6F" transform="translate(0,0)"/>
</svg>
